<svg xmlns="http://www.w3.org/2000/svg" version="1.1" viewBox="-5.0 -10.0 110.0 135.0">
 <path d="m92.465 49.633c0-1.043 0.84766-1.8945 1.8906-1.8945s1.8945 0.84766 1.8945 1.8945v20.039c0 4.7773-1.9531 9.1172-5.1016 12.266-3.1484 3.1484-7.4883 5.1016-12.266 5.1016h-57.762c-4.7773 0-9.1211-1.9531-12.266-5.1016-3.1484-3.1484-5.1016-7.4883-5.1016-12.266v-20.039c0-1.043 0.84766-1.8945 1.8945-1.8945 1.043 0 1.8906 0.84766 1.8906 1.8945v7.8633c0 3.7305 1.5312 7.1289 3.9883 9.5898 2.4648 2.4609 5.8555 3.9883 9.5898 3.9883h57.762c3.7305 0 7.1289-1.5312 9.5898-3.9883 2.4609-2.4648 3.9883-5.8555 3.9883-9.5898v-7.8633zm-41.062 12.254c-0.34375 0.38281-0.84375 0.61719-1.3984 0.61719-0.55469 0-1.0547-0.23828-1.3984-0.61719l-19.43-18.473c-0.75781-0.71875-0.78125-1.9102-0.066406-2.668 0.71875-0.75781 1.9102-0.78125 2.668-0.066406l16.332 15.531v-41.352c0-1.043 0.84766-1.8906 1.8945-1.8906 1.043 0 1.8945 0.84766 1.8945 1.8906v41.352l16.332-15.531c0.75781-0.71875 1.9492-0.69141 2.668 0.066406 0.71875 0.75781 0.69141 1.9492-0.066407 2.668z" fill-rule="evenodd"/>
<text x="0.0" y="117.5" font-size="5.0" font-weight="bold" font-family="Arbeit Regular, Helvetica, Arial-Unicode, Arial, Sans-serif" fill="#000000">Created by SUBAIDA</text><text x="0.0" y="122.5" font-size="5.0" font-weight="bold" font-family="Arbeit Regular, Helvetica, Arial-Unicode, Arial, Sans-serif" fill="#000000">from Noun Project</text></svg>