<svg xmlns="http://www.w3.org/2000/svg" viewBox="0 0 24 30" fill="none" x="0px" y="0px"><path fill-rule="evenodd" clip-rule="evenodd" d="M6 4C5.44772 4 5 4.44772 5 5V14.1707C5.31278 14.0602 5.64936 14 6 14H18C18.3506 14 18.6872 14.0602 19 14.1707V5C19 4.44772 18.5523 4 18 4H16C15.4477 4 15 3.55228 15 3C15 2.44772 15.4477 2 16 2H18C19.6569 2 21 3.34315 21 5V19C21 20.6569 19.6569 22 18 22H6C4.34315 22 3 20.6569 3 19V5C3 3.34315 4.34315 2 6 2H8C8.55228 2 9 2.44772 9 3C9 3.55228 8.55228 4 8 4H6ZM15 18C15 17.4477 15.4477 17 16 17H17C17.5523 17 18 17.4477 18 18C18 18.5523 17.5523 19 17 19H16C15.4477 19 15 18.5523 15 18Z" fill="black"/><path d="M12.6644 11.7474C12.2855 12.0842 11.7145 12.0842 11.3356 11.7474L8.33563 9.08074C7.92285 8.71382 7.88567 8.08174 8.25259 7.66896C8.61951 7.25618 9.25158 7.219 9.66437 7.58592L11 8.77315L11 3C11 2.44771 11.4477 2 12 2C12.5523 2 13 2.44771 13 3L13 8.77316L14.3356 7.58592C14.7484 7.21901 15.3805 7.25619 15.7474 7.66897C16.1143 8.08175 16.0771 8.71383 15.6644 9.08074L12.6644 11.7474Z" fill="black"/><text x="0" y="39" fill="#000000" font-size="5px" font-weight="bold" font-family="'Helvetica Neue', Helvetica, Arial-Unicode, Arial, Sans-serif">Created by Heztasia</text><text x="0" y="44" fill="#000000" font-size="5px" font-weight="bold" font-family="'Helvetica Neue', Helvetica, Arial-Unicode, Arial, Sans-serif">from the Noun Project</text></svg>